<mxfile host="Electron" agent="Mozilla/5.0 (Windows NT 10.0; Win64; x64) AppleWebKit/537.36 (KHTML, like Gecko) draw.io/24.7.17 Chrome/128.0.6613.36 Electron/32.0.1 Safari/537.36" version="24.7.17">
  <diagram name="Page-1" id="uNjK1l3yAaINQKP-nZpB">
    <mxGraphModel dx="2284" dy="836" grid="1" gridSize="10" guides="1" tooltips="1" connect="1" arrows="1" fold="1" page="1" pageScale="1" pageWidth="850" pageHeight="1400" math="0" shadow="0">
      <root>
        <mxCell id="0" />
        <mxCell id="1" parent="0" />
        <mxCell id="NVDzCjkwI6SAZs0Klb5J-4" style="edgeStyle=orthogonalEdgeStyle;rounded=0;orthogonalLoop=1;jettySize=auto;html=1;entryX=0.5;entryY=0;entryDx=0;entryDy=0;" parent="1" source="NVDzCjkwI6SAZs0Klb5J-1" target="NVDzCjkwI6SAZs0Klb5J-2" edge="1">
          <mxGeometry relative="1" as="geometry" />
        </mxCell>
        <mxCell id="NVDzCjkwI6SAZs0Klb5J-1" value="&lt;font style=&quot;font-size: 24px;&quot;&gt;START&lt;/font&gt;" style="ellipse;whiteSpace=wrap;html=1;" parent="1" vertex="1">
          <mxGeometry x="258" y="10" width="175" height="130" as="geometry" />
        </mxCell>
        <mxCell id="NVDzCjkwI6SAZs0Klb5J-5" value="&lt;font style=&quot;font-size: 24px;&quot;&gt;IF POINT &amp;lt; 4&lt;/font&gt;" style="rhombus;whiteSpace=wrap;html=1;" parent="1" vertex="1">
          <mxGeometry x="-70" y="440" width="180" height="155" as="geometry" />
        </mxCell>
        <mxCell id="NVDzCjkwI6SAZs0Klb5J-6" value="&lt;font style=&quot;font-size: 24px;&quot;&gt;IF &amp;lt;=4 POINT &amp;lt;=6&lt;/font&gt;" style="rhombus;whiteSpace=wrap;html=1;" parent="1" vertex="1">
          <mxGeometry x="130" y="437.5" width="190" height="160" as="geometry" />
        </mxCell>
        <mxCell id="NVDzCjkwI6SAZs0Klb5J-7" value="&lt;font style=&quot;font-size: 24px;&quot;&gt;IF&amp;nbsp; 6&amp;lt; POINT &amp;lt;=8&lt;/font&gt;" style="rhombus;whiteSpace=wrap;html=1;" parent="1" vertex="1">
          <mxGeometry x="330" y="442.5" width="190" height="150" as="geometry" />
        </mxCell>
        <mxCell id="NVDzCjkwI6SAZs0Klb5J-8" value="&lt;font style=&quot;font-size: 24px;&quot;&gt;IF 8&amp;lt; POINT &amp;lt;=9&lt;/font&gt;" style="rhombus;whiteSpace=wrap;html=1;" parent="1" vertex="1">
          <mxGeometry x="540" y="442.5" width="190" height="150" as="geometry" />
        </mxCell>
        <mxCell id="ZFkX-kVmu0Cy3S8nO5NU-21" style="edgeStyle=orthogonalEdgeStyle;rounded=0;orthogonalLoop=1;jettySize=auto;html=1;exitX=0.5;exitY=1;exitDx=0;exitDy=0;entryX=0.5;entryY=0;entryDx=0;entryDy=0;" parent="1" source="NVDzCjkwI6SAZs0Klb5J-9" target="ZFkX-kVmu0Cy3S8nO5NU-15" edge="1">
          <mxGeometry relative="1" as="geometry" />
        </mxCell>
        <mxCell id="NVDzCjkwI6SAZs0Klb5J-9" value="&lt;font style=&quot;font-size: 24px;&quot;&gt;IF 9&amp;lt; POINT &amp;lt;=10&lt;/font&gt;" style="rhombus;whiteSpace=wrap;html=1;" parent="1" vertex="1">
          <mxGeometry x="740" y="432.5" width="200" height="160" as="geometry" />
        </mxCell>
        <mxCell id="ZFkX-kVmu0Cy3S8nO5NU-5" value="" style="endArrow=classic;html=1;rounded=0;entryX=0.5;entryY=0;entryDx=0;entryDy=0;exitX=0;exitY=0.5;exitDx=0;exitDy=0;" parent="1" source="NVDzCjkwI6SAZs0Klb5J-2" target="NVDzCjkwI6SAZs0Klb5J-5" edge="1">
          <mxGeometry width="50" height="50" relative="1" as="geometry">
            <mxPoint x="240" y="290" as="sourcePoint" />
            <mxPoint x="24.665551839464797" y="394.017558528428" as="targetPoint" />
            <Array as="points">
              <mxPoint x="30" y="310" />
            </Array>
          </mxGeometry>
        </mxCell>
        <mxCell id="ZFkX-kVmu0Cy3S8nO5NU-6" value="" style="endArrow=classic;html=1;rounded=0;" parent="1" source="NVDzCjkwI6SAZs0Klb5J-2" edge="1">
          <mxGeometry width="50" height="50" relative="1" as="geometry">
            <mxPoint x="360" y="380" as="sourcePoint" />
            <mxPoint x="410" y="330" as="targetPoint" />
          </mxGeometry>
        </mxCell>
        <mxCell id="ZFkX-kVmu0Cy3S8nO5NU-7" value="" style="endArrow=classic;html=1;rounded=0;exitX=0.25;exitY=1;exitDx=0;exitDy=0;" parent="1" edge="1">
          <mxGeometry width="50" height="50" relative="1" as="geometry">
            <mxPoint x="261.06" y="332.97" as="sourcePoint" />
            <mxPoint x="220.00439496496853" y="440.00212207576305" as="targetPoint" />
          </mxGeometry>
        </mxCell>
        <mxCell id="NVDzCjkwI6SAZs0Klb5J-2" value="&lt;font style=&quot;font-size: 24px;&quot;&gt;INPUT POINT&lt;/font&gt;" style="shape=parallelogram;perimeter=parallelogramPerimeter;whiteSpace=wrap;html=1;fixedSize=1;" parent="1" vertex="1">
          <mxGeometry x="233" y="260" width="225" height="90" as="geometry" />
        </mxCell>
        <mxCell id="ZFkX-kVmu0Cy3S8nO5NU-8" value="" style="endArrow=classic;html=1;rounded=0;exitX=0.6;exitY=1.022;exitDx=0;exitDy=0;exitPerimeter=0;entryX=0.421;entryY=0.05;entryDx=0;entryDy=0;entryPerimeter=0;" parent="1" source="NVDzCjkwI6SAZs0Klb5J-2" target="NVDzCjkwI6SAZs0Klb5J-7" edge="1">
          <mxGeometry width="50" height="50" relative="1" as="geometry">
            <mxPoint x="360" y="380" as="sourcePoint" />
            <mxPoint x="410" y="330" as="targetPoint" />
          </mxGeometry>
        </mxCell>
        <mxCell id="ZFkX-kVmu0Cy3S8nO5NU-9" value="" style="endArrow=classic;html=1;rounded=0;" parent="1" target="NVDzCjkwI6SAZs0Klb5J-9" edge="1">
          <mxGeometry width="50" height="50" relative="1" as="geometry">
            <mxPoint x="450" y="310" as="sourcePoint" />
            <mxPoint x="500" y="260" as="targetPoint" />
            <Array as="points">
              <mxPoint x="740" y="310" />
            </Array>
          </mxGeometry>
        </mxCell>
        <mxCell id="ZFkX-kVmu0Cy3S8nO5NU-10" value="" style="endArrow=classic;html=1;rounded=0;" parent="1" target="NVDzCjkwI6SAZs0Klb5J-8" edge="1">
          <mxGeometry width="50" height="50" relative="1" as="geometry">
            <mxPoint x="440" y="350" as="sourcePoint" />
            <mxPoint x="490" y="300" as="targetPoint" />
          </mxGeometry>
        </mxCell>
        <mxCell id="ZFkX-kVmu0Cy3S8nO5NU-23" style="edgeStyle=orthogonalEdgeStyle;rounded=0;orthogonalLoop=1;jettySize=auto;html=1;exitX=0.5;exitY=1;exitDx=0;exitDy=0;entryX=0;entryY=0.5;entryDx=0;entryDy=0;" parent="1" source="ZFkX-kVmu0Cy3S8nO5NU-11" target="ZFkX-kVmu0Cy3S8nO5NU-22" edge="1">
          <mxGeometry relative="1" as="geometry" />
        </mxCell>
        <mxCell id="ZFkX-kVmu0Cy3S8nO5NU-11" value="&lt;font style=&quot;font-size: 24px;&quot;&gt;PRINT KHONGDAT&lt;/font&gt;" style="shape=parallelogram;perimeter=parallelogramPerimeter;whiteSpace=wrap;html=1;fixedSize=1;" parent="1" vertex="1">
          <mxGeometry x="-100" y="660" width="200" height="90" as="geometry" />
        </mxCell>
        <mxCell id="ZFkX-kVmu0Cy3S8nO5NU-12" value="&lt;font style=&quot;font-size: 24px;&quot;&gt;PRINT TRUNGBINH&lt;/font&gt;" style="shape=parallelogram;perimeter=parallelogramPerimeter;whiteSpace=wrap;html=1;fixedSize=1;" parent="1" vertex="1">
          <mxGeometry x="115" y="665" width="205" height="85" as="geometry" />
        </mxCell>
        <mxCell id="ZFkX-kVmu0Cy3S8nO5NU-13" value="&lt;font style=&quot;font-size: 24px;&quot;&gt;PRINT KHA&lt;/font&gt;" style="shape=parallelogram;perimeter=parallelogramPerimeter;whiteSpace=wrap;html=1;fixedSize=1;" parent="1" vertex="1">
          <mxGeometry x="345" y="670" width="185" height="80" as="geometry" />
        </mxCell>
        <mxCell id="ZFkX-kVmu0Cy3S8nO5NU-14" value="&lt;font style=&quot;font-size: 24px;&quot;&gt;PRINT GIOI&lt;/font&gt;" style="shape=parallelogram;perimeter=parallelogramPerimeter;whiteSpace=wrap;html=1;fixedSize=1;" parent="1" vertex="1">
          <mxGeometry x="550" y="670" width="180" height="80" as="geometry" />
        </mxCell>
        <mxCell id="ZFkX-kVmu0Cy3S8nO5NU-15" value="&lt;font style=&quot;font-size: 24px;&quot;&gt;PRINT XUATSAC&lt;/font&gt;" style="shape=parallelogram;perimeter=parallelogramPerimeter;whiteSpace=wrap;html=1;fixedSize=1;" parent="1" vertex="1">
          <mxGeometry x="745" y="675" width="190" height="70" as="geometry" />
        </mxCell>
        <mxCell id="ZFkX-kVmu0Cy3S8nO5NU-17" style="edgeStyle=orthogonalEdgeStyle;rounded=0;orthogonalLoop=1;jettySize=auto;html=1;exitX=0.5;exitY=1;exitDx=0;exitDy=0;entryX=0.6;entryY=-0.011;entryDx=0;entryDy=0;entryPerimeter=0;" parent="1" source="NVDzCjkwI6SAZs0Klb5J-5" target="ZFkX-kVmu0Cy3S8nO5NU-11" edge="1">
          <mxGeometry relative="1" as="geometry" />
        </mxCell>
        <mxCell id="ZFkX-kVmu0Cy3S8nO5NU-18" style="edgeStyle=orthogonalEdgeStyle;rounded=0;orthogonalLoop=1;jettySize=auto;html=1;exitX=0.5;exitY=1;exitDx=0;exitDy=0;entryX=0.537;entryY=0.022;entryDx=0;entryDy=0;entryPerimeter=0;" parent="1" source="NVDzCjkwI6SAZs0Klb5J-6" target="ZFkX-kVmu0Cy3S8nO5NU-12" edge="1">
          <mxGeometry relative="1" as="geometry" />
        </mxCell>
        <mxCell id="ZFkX-kVmu0Cy3S8nO5NU-19" style="edgeStyle=orthogonalEdgeStyle;rounded=0;orthogonalLoop=1;jettySize=auto;html=1;exitX=0.5;exitY=1;exitDx=0;exitDy=0;entryX=0.432;entryY=0.063;entryDx=0;entryDy=0;entryPerimeter=0;" parent="1" source="NVDzCjkwI6SAZs0Klb5J-7" target="ZFkX-kVmu0Cy3S8nO5NU-13" edge="1">
          <mxGeometry relative="1" as="geometry" />
        </mxCell>
        <mxCell id="ZFkX-kVmu0Cy3S8nO5NU-20" style="edgeStyle=orthogonalEdgeStyle;rounded=0;orthogonalLoop=1;jettySize=auto;html=1;exitX=0.5;exitY=1;exitDx=0;exitDy=0;entryX=0.467;entryY=0.05;entryDx=0;entryDy=0;entryPerimeter=0;" parent="1" source="NVDzCjkwI6SAZs0Klb5J-8" target="ZFkX-kVmu0Cy3S8nO5NU-14" edge="1">
          <mxGeometry relative="1" as="geometry" />
        </mxCell>
        <mxCell id="ZFkX-kVmu0Cy3S8nO5NU-22" value="&lt;font style=&quot;font-size: 24px;&quot;&gt;END&lt;/font&gt;" style="ellipse;whiteSpace=wrap;html=1;" parent="1" vertex="1">
          <mxGeometry x="258" y="910" width="175" height="130" as="geometry" />
        </mxCell>
        <mxCell id="ZFkX-kVmu0Cy3S8nO5NU-25" value="" style="endArrow=classic;html=1;rounded=0;entryX=0;entryY=0;entryDx=0;entryDy=0;exitX=0.5;exitY=1;exitDx=0;exitDy=0;" parent="1" source="ZFkX-kVmu0Cy3S8nO5NU-12" target="ZFkX-kVmu0Cy3S8nO5NU-22" edge="1">
          <mxGeometry width="50" height="50" relative="1" as="geometry">
            <mxPoint x="200" y="750" as="sourcePoint" />
            <mxPoint x="270" y="840" as="targetPoint" />
          </mxGeometry>
        </mxCell>
        <mxCell id="ZFkX-kVmu0Cy3S8nO5NU-26" value="" style="endArrow=classic;html=1;rounded=0;exitX=0.465;exitY=0.988;exitDx=0;exitDy=0;exitPerimeter=0;" parent="1" source="ZFkX-kVmu0Cy3S8nO5NU-13" edge="1">
          <mxGeometry width="50" height="50" relative="1" as="geometry">
            <mxPoint x="330" y="760" as="sourcePoint" />
            <mxPoint x="393" y="920" as="targetPoint" />
          </mxGeometry>
        </mxCell>
        <mxCell id="ZFkX-kVmu0Cy3S8nO5NU-27" value="" style="endArrow=classic;html=1;rounded=0;entryX=0.989;entryY=0.438;entryDx=0;entryDy=0;entryPerimeter=0;" parent="1" target="ZFkX-kVmu0Cy3S8nO5NU-22" edge="1">
          <mxGeometry width="50" height="50" relative="1" as="geometry">
            <mxPoint x="634.51" y="750" as="sourcePoint" />
            <mxPoint x="645.4811945287518" y="900.0871215787702" as="targetPoint" />
            <Array as="points">
              <mxPoint x="590" y="880" />
            </Array>
          </mxGeometry>
        </mxCell>
        <mxCell id="ZFkX-kVmu0Cy3S8nO5NU-28" value="" style="endArrow=classic;html=1;rounded=0;entryX=0.96;entryY=0.669;entryDx=0;entryDy=0;entryPerimeter=0;" parent="1" target="ZFkX-kVmu0Cy3S8nO5NU-22" edge="1">
          <mxGeometry width="50" height="50" relative="1" as="geometry">
            <mxPoint x="840" y="750" as="sourcePoint" />
            <mxPoint x="760" y="940" as="targetPoint" />
            <Array as="points">
              <mxPoint x="840" y="990" />
            </Array>
          </mxGeometry>
        </mxCell>
      </root>
    </mxGraphModel>
  </diagram>
</mxfile>
